<?xml version="1.0" encoding="UTF-8" standalone="no"?>
<svg
   width="16"
   height="16"
   version="1.1"
   id="svg1"
   sodipodi:docname="DateTime.svg"
   xml:space="preserve"
   inkscape:version="1.4.2 (ebf0e940d0, 2025-05-08)"
   xmlns:inkscape="http://www.inkscape.org/namespaces/inkscape"
   xmlns:sodipodi="http://sodipodi.sourceforge.net/DTD/sodipodi-0.dtd"
   xmlns="http://www.w3.org/2000/svg"
   xmlns:svg="http://www.w3.org/2000/svg"><defs
     id="defs1" /><sodipodi:namedview
     id="namedview1"
     pagecolor="#ffffff"
     bordercolor="#000000"
     borderopacity="0.25"
     inkscape:showpageshadow="2"
     inkscape:pageopacity="0.0"
     inkscape:pagecheckerboard="0"
     inkscape:deskcolor="#d1d1d1"
     inkscape:zoom="12.671875"
     inkscape:cx="-10.890259"
     inkscape:cy="5.1689273"
     inkscape:window-width="1920"
     inkscape:window-height="1012"
     inkscape:window-x="0"
     inkscape:window-y="32"
     inkscape:window-maximized="1"
     inkscape:current-layer="svg1" /><path
     fill="#e0e0e0"
     d="M 1,1 V 3 H 3 V 1 Z M 4,1 V 3 H 6 V 1 Z M 7,1 V 3 H 9 V 1 Z m 3,0 v 2 h 2 V 1 Z m 3,0 v 2 h 2 V 1 Z M 1,4 V 6 H 3 V 4 Z M 1,7 V 9 H 3 V 7 Z m 0,3 v 2 h 2 v -2 z m 0,3 v 2 h 2 v -2 z"
     id="path1"
     sodipodi:nodetypes="ccccccccccccccccccccccccccccccccccccccccccccc"
     style="fill:#5599ff" /><g
     id="g3"
     transform="matrix(0.88510202,0,0,0.83828423,2.7564592,2.4121191)"
     style="fill:#808080"><path
       fill="none"
       stroke="#e0e0e0"
       stroke-linecap="round"
       stroke-width="1.27519"
       d="m 7.6488938,2.5328935 c -3.0745766,0 -5.5670071,2.6482291 -5.5670071,5.9149851 0,3.2667564 2.4924305,5.9149854 5.5670071,5.9149854 v -1.314441 m 0,1.314441 c 3.0745762,0 5.5670082,-2.648229 5.5670082,-5.9149854 0,-3.266756 -2.492432,-5.9149851 -5.5670082,-5.9149851 M 12.96848,8.4478786 h -0.98969 m -9.7731944,0 h 0.9896906 m 4.4536076,0 1.9793813,-2.1031058"
       id="path1-5"
       sodipodi:nodetypes="cscccsccccccc"
       style="fill:#4d4d4d" /><circle
       cx="7.6656532"
       cy="8.6087923"
       r="1"
       fill="#e0e0e0"
       id="circle1"
       style="fill:#00ffff" /></g></svg>
